# xmcd
#
# Track frame offsets:
#	150
#	10088
#	21436
#	31165
#	47006
#	59094
#	74481
#	88479
#	101063
#	115210
#	130354
#	145656
#	157780
#	172094
#	186166
#	199294
#	209828
#	222970
#	236508
#	251480
#
# Disc length: 3583
#
# Revision: 2
# Processed by: cddbd v1.5.1PL0 Copyright (c) Steve Scherf et al.
# Submitted via: dBpowerAMP V4.0
# Normalized: r0:TSWAP
#
DISCID=320dfd14
DTITLE=Various Artist - Blues Masters - Disc 1
DYEAR=2001
DGENRE=Blues
TTITLE0=John Mayall and The Bluesbreakers - I'm Your Witchdoctor
TTITLE1=John  Lee Hooker - Boom Boom
TTITLE2=Eric Clapton - Tribute To Elmore
TTITLE3=Albert Lee - Water On My Fire
TTITLE4=Big Joe Williams - Baby Please Don't Go
TTITLE5=Muddy Waters - Country Blues
TTITLE6=Blind Willie McTell - Scary Day Blues
TTITLE7=Cyrill Davies and The All Stars - Some Day Baby
TTITLE8=Otis Rush - I Can't Quit You Baby
TTITLE9=Robert Cray - Sleeping In The Ground
TTITLE10=Lighting Hopkins - Big Car Blues
TTITLE11=Robert Johnson - Cross Road Blues
TTITLE12=Son House - My Black Mama
TTITLE13=Leadbelly - Midnight Special
TTITLE14=Sippy Wallace - I'm A Mighty Tight Woman
TTITLE15=Memphis Slim - Gotta Find My Baby
TTITLE16=Elmore James - Dust My Broom
TTITLE17=Sonny Boy Williamson - Good Morning Little Schoolgirl
TTITLE18=Sleepy John Estes - Broken Hearted, Ragged and Dirty Too
TTITLE19=Jimmy Reed - Cry Before I Go
EXTD=
EXTT0=
EXTT1=
EXTT2=
EXTT3=
EXTT4=
EXTT5=
EXTT6=
EXTT7=
EXTT8=
EXTT9=
EXTT10=
EXTT11=
EXTT12=
EXTT13=
EXTT14=
EXTT15=
EXTT16=
EXTT17=
EXTT18=
EXTT19=
PLAYORDER=
